<?xml version="1.0" encoding="UTF-8" standalone="no"?>
<!-- Created with Inkscape (http://www.inkscape.org/) -->

<svg
   width="66.066406mm"
   height="69.11528mm"
   viewBox="0 0 66.066406 69.11528"
   version="1.1"
   id="svg7730"
   xmlns="http://www.w3.org/2000/svg"
   xmlns:svg="http://www.w3.org/2000/svg">
  <defs
     id="defs7727" />
  <g
     id="layer1"
     transform="translate(509.99438,175.90039)">
    <path
       id="rect528-6-2"
       style="fill:#f7faf8;stroke:#333333;stroke-width:0.01;stroke-linecap:round;stroke-dasharray:none;fill-opacity:1"
       d="m -446.67797,-106.79728 -0.008,-32.18705 v -0.002 l -0.006,-3.89258 c 0,-16.75746 -13.51402,-30.27148 -30.27148,-30.27148 h 5.6e-4 c -16.75746,0 -30.27149,13.51402 -30.27149,30.27148 l -0.006,3.89258 v 0.002 l -0.004,32.18705" />
    <path
       id="rect528-6"
       style="fill:none;stroke:#c56c45;stroke-width:5.5;stroke-linecap:round"
       d="m -446.67797,-109.53511 -0.008,-29.44922 v -0.002 l -0.006,-3.89258 c 0,-16.75746 -13.51402,-30.27148 -30.27148,-30.27148 h 5.6e-4 c -16.75746,0 -30.27149,13.51402 -30.27149,30.27148 l -0.006,3.89258 v 0.002 l -0.004,29.44922" />
    <path
       style="fill:#151f2e;fill-opacity:1;stroke:none;stroke-width:0.1;stroke-linecap:round"
       d="m -454.95974,-139.81893 -15.33653,11.85302 c -3.75097,2.89903 -9.93295,2.89799 -13.68392,-0.001 l -14.98513,-11.58172 -5.2e-4,0.56844 -0.004,32.19493 h 44.0154 l -0.004,-32.19286 z"
       id="path1677" />
    <path
       style="fill:#c46b44;fill-opacity:1;stroke:none;stroke-width:0.1;stroke-linecap:round"
       d="m -476.96253,-164.87683 c -11.12016,2.4e-4 -20.09174,7.892 -21.73045,18.48931 l 19.27324,14.89573 c 1.30333,1.00731 3.25815,1.00731 4.56148,0 l 19.58588,-15.13706 c -1.73637,-10.47584 -10.65408,-18.24774 -21.68963,-18.24798 z"
       id="rect528-6-5" />
  </g>
</svg>
