<svg xmlns="http://www.w3.org/2000/svg" viewBox="0 0 128 128">
  <g transform="translate(16 14) scale(1.45)">
    <g transform="translate(509.99438 175.90039)">
    <path fill="#f7faf8" d="m-446.67797-106.79728-.008-32.18705v-.002l-.006-3.89258c0-16.75746-13.51402-30.27148-30.27148-30.27148h.00056c-16.75746 0-30.27149 13.51402-30.27149 30.27148l-.006 3.89258v.002l-.004 32.18705"/>
    <path fill="none" stroke="#c46b44" stroke-width="5.5" stroke-linecap="round" d="m-446.67797-109.53511-.008-29.44922v-.002l-.006-3.89258c0-16.75746-13.51402-30.27148-30.27148-30.27148h.00056c-16.75746 0-30.27149 13.51402-30.27149 30.27148l-.006 3.89258v.002l-.004 29.44922"/>
    <path fill="#151f2e" d="m-454.95974-139.81893-15.33653 11.85302c-3.75097 2.89903-9.93295 2.89799-13.68392-.001l-14.98513-11.58172-.00052.56844-.004 32.19493h44.0154l-.004-32.19286z"/>
    <path fill="#c46b44" d="m-476.96253-164.87683c-11.12016.00024-20.09174 7.892-21.73045 18.48931l19.27324 14.89573c1.30333 1.00731 3.25815 1.00731 4.56148 0l19.58588-15.13706c-1.73637-10.47584-10.65408-18.24774-21.68963-18.24798z"/>
    </g>
  </g>
</svg>
